<svg version="1.0" xmlns="http://www.w3.org/2000/svg"
 width="310.000000pt" height="366.000000pt" viewBox="0 0 300.000000 366.000000"
 preserveAspectRatio="xMidYMid meet">
<g transform="translate(10.000000,366.000000) scale(0.100000,-0.100000)"
fill="#ff0000" stroke="none">
<path d="M945 3585 c2 -44 8 -133 11 -199 l7 -118 165 -290 c168 -293 187
-318 240 -318 11 0 70 23 132 50 62 28 115 49 117 47 2 -2 -31 -213 -74 -469
l-77 -464 20 -39 c25 -47 77 -78 122 -71 22 3 94 52 230 157 108 83 209 163
223 176 l26 24 61 -103 c86 -147 70 -141 343 -123 123 8 224 13 225 12 1 -1
-22 -110 -52 -242 -29 -132 -54 -251 -54 -265 0 -37 44 -124 75 -149 17 -12
25 -25 19 -30 -5 -4 -72 -55 -149 -113 l-140 -105 3 221 c3 245 -3 284 -51
320 -21 15 -47 22 -104 24 -90 5 -145 -9 -172 -45 -20 -24 -21 -38 -21 -295 0
-166 4 -277 10 -289 15 -27 82 -59 125 -59 19 0 35 -3 34 -7 0 -5 -86 -71
-190 -148 -211 -155 -230 -178 -231 -269 0 -38 14 -89 57 -203 l57 -151 66
-25 c37 -14 68 -24 70 -22 1 1 -18 77 -43 169 -25 92 -45 183 -45 202 0 54 24
89 92 135 44 30 902 655 926 674 1 1 -49 31 -112 66 -73 41 -117 71 -120 84
-12 42 -3 88 68 380 40 165 72 301 71 303 -3 3 -340 -12 -512 -23 l-81 -5 -92
148 c-51 81 -94 149 -95 150 -2 2 -114 -84 -249 -192 -136 -108 -249 -196
-252 -196 -3 0 -3 8 0 18 3 9 46 247 96 527 50 281 93 522 96 537 5 26 -1 24
-201 -73 -114 -55 -208 -99 -209 -97 -3 4 -414 755 -445 813 l-22 40 6 -80z
m113 -192 c44 -82 138 -254 209 -384 l129 -236 189 93 c105 51 193 93 197 93
4 1 5 -5 3 -11 -5 -13 -120 -651 -169 -939 -14 -80 -28 -154 -33 -164 -8 -21
-12 -25 322 241 110 87 204 159 208 159 4 0 47 -63 95 -139 l87 -140 60 2 c33
1 161 7 283 13 123 6 226 9 228 6 3 -2 -27 -137 -66 -300 -54 -225 -69 -305
-64 -335 8 -52 10 -54 74 -90 30 -16 74 -41 98 -54 l42 -25 -156 -114 c-583
-426 -705 -514 -750 -544 -56 -36 -94 -98 -94 -151 0 -16 18 -94 40 -174 22
-80 40 -148 40 -152 0 -3 -18 1 -39 9 -39 15 -40 18 -91 155 -63 170 -68 195
-46 252 19 49 -10 25 561 454 187 141 342 258 345 260 3 3 -1 7 -8 9 -51 19
-112 107 -112 163 0 18 25 144 55 282 31 138 55 251 53 253 -2 1 -109 -4 -238
-12 -159 -9 -242 -10 -257 -4 -13 6 -49 56 -84 116 -34 58 -65 108 -70 110 -4
3 -113 -76 -241 -175 -194 -150 -239 -180 -266 -180 -45 0 -92 46 -92 90 0 31
75 506 130 815 15 88 27 161 25 163 -1 1 -15 -4 -31 -12 -96 -47 -240 -106
-259 -106 -13 0 -32 8 -43 18 -11 9 -90 140 -176 290 l-156 274 -5 81 c-3 45
-8 106 -10 135 -3 28 -3 52 -1 52 2 0 40 -66 84 -147z m1277 -1907 c18 -8 38
-23 44 -34 6 -11 11 -119 12 -268 l1 -249 -54 -42 c-45 -36 -60 -42 -101 -43
-53 0 -113 21 -133 48 -19 25 -19 529 0 554 35 47 157 64 231 34z"/>
<path d="M2200 1431 c-15 -30 -13 -493 3 -513 19 -24 43 -28 66 -12 20 15 21
22 21 268 0 183 -3 255 -12 264 -19 19 -66 15 -78 -7z m65 -256 l0 -250 -22
-3 -23 -3 0 256 0 256 23 -3 22 -3 0 -250z"/>
<path d="M758 3524 c-87 -74 -148 -132 -148 -143 0 -18 126 -819 135 -857 4
-20 -1 -22 -96 -33 l-101 -11 -173 -98 -172 -97 -90 -145 c-50 -80 -94 -154
-99 -165 -5 -11 -7 -224 -4 -486 l5 -466 175 -191 c96 -105 177 -199 181 -209
58 -144 239 -586 242 -589 2 -3 3 6 1 18 -2 13 -8 283 -13 601 -5 319 -12 581
-14 584 -3 3 -85 26 -182 53 -97 26 -177 49 -179 51 -6 7 -85 203 -83 205 1 1
135 -47 298 -108 l296 -111 12 -171 c18 -260 11 -238 94 -290 l72 -45 2 72 c2
40 0 676 -5 1414 l-7 1341 -147 -124z m130 -1707 l3 -949 -29 17 c-72 43 -69
32 -85 253 -8 112 -17 205 -19 207 -4 4 -668 254 -668 251 0 0 26 -64 58 -140
l57 -139 105 -29 c58 -15 140 -38 183 -49 l77 -22 1 -261 c1 -144 4 -377 8
-518 3 -141 3 -254 0 -250 -4 4 -48 111 -99 237 l-92 231 -179 194 -179 195
-2 452 -3 453 97 156 97 157 170 97 169 96 107 11 c59 6 108 13 110 15 1 1
-26 183 -61 403 -36 220 -68 423 -72 450 l-8 51 120 101 121 100 5 -411 c3
-226 6 -838 8 -1359z"/>
<path d="M1022 1503 c-59 -29 -62 -44 -62 -335 0 -292 1 -297 66 -324 45 -19
167 -18 204 1 15 8 38 27 49 41 19 25 21 40 21 184 0 144 -2 160 -21 183 -32
42 -101 55 -164 31 -14 -6 -16 2 -13 67 3 67 5 74 25 77 18 3 23 -3 28 -32 4
-19 4 -44 0 -55 -6 -20 -3 -21 69 -21 l76 0 0 55 c0 107 -45 145 -172 145 -47
0 -85 -6 -106 -17z m229 -41 c22 -24 29 -42 29 -72 l0 -40 -50 0 c-49 0 -50 1
-50 31 0 46 -16 69 -49 69 -44 0 -52 -19 -49 -107 l3 -78 72 4 c66 3 74 1 97
-23 26 -25 26 -28 26 -173 0 -166 -6 -184 -66 -209 -72 -30 -199 -10 -223 34
-7 13 -11 112 -11 275 0 245 1 255 21 281 31 39 54 46 142 43 75 -2 80 -4 108
-35z"/>
<path d="M1092 1198 c-8 -8 -12 -55 -12 -144 0 -126 1 -134 22 -148 29 -20 34
-20 58 4 18 18 20 33 20 141 0 66 -5 129 -10 140 -12 22 -59 26 -78 7z m58
-144 c0 -135 0 -135 -22 -132 -22 3 -23 7 -26 122 -1 66 0 126 2 133 3 7 15
13 26 13 19 0 20 -6 20 -136z"/>
<path d="M1392 1505 c-44 -19 -62 -65 -62 -157 l0 -73 67 2 68 1 2 59 c1 32 2
64 2 71 1 6 12 12 26 12 25 0 25 -1 25 -78 0 -81 -9 -102 -42 -102 -14 0 -18
-8 -18 -39 0 -36 3 -40 28 -43 l27 -3 0 -110 c0 -103 -1 -110 -20 -110 -18 0
-20 8 -23 93 l-3 92 -69 0 -70 0 0 -100 c0 -118 14 -154 65 -176 52 -21 173
-18 212 6 53 32 65 68 61 185 -3 109 -15 136 -63 155 -19 7 -18 8 7 20 43 20
61 70 56 160 -3 87 -18 112 -75 136 -42 18 -159 17 -201 -1z m191 -18 c53 -22
60 -39 61 -134 l1 -85 -37 -33 c-45 -38 -47 -48 -12 -63 35 -17 54 -69 54
-152 0 -128 -37 -170 -150 -170 -72 0 -122 20 -139 56 -6 14 -11 63 -11 109
l0 85 45 0 45 0 0 -79 c0 -86 12 -111 54 -111 40 0 46 18 46 135 0 115 -6 135
-42 135 -11 0 -18 7 -18 20 0 11 5 20 12 20 6 0 20 7 30 17 15 13 18 32 18
105 0 86 -1 89 -26 99 -20 7 -32 6 -50 -6 -21 -13 -24 -23 -24 -75 l0 -60 -43
0 -43 0 3 72 c3 75 16 102 58 119 32 13 133 10 168 -4z"/>
<path d="M1762 1504 c-59 -30 -67 -54 -67 -187 l0 -119 32 -28 c37 -33 109
-48 142 -31 21 12 21 11 21 -104 0 -115 0 -116 -22 -113 -22 3 -23 8 -26 101
l-3 97 -72 0 -73 0 4 -107 c2 -60 9 -116 14 -126 20 -39 69 -57 154 -57 68 0
87 4 115 23 57 38 59 48 59 322 0 269 -2 281 -53 319 -39 29 -176 35 -225 10z
m215 -30 c15 -11 31 -32 34 -45 4 -13 7 -127 7 -254 0 -126 -3 -241 -7 -254
-10 -38 -54 -64 -115 -69 -75 -6 -124 5 -152 33 -22 22 -24 32 -24 120 l0 95
50 0 50 0 0 -89 c0 -79 2 -92 21 -104 26 -19 58 -11 68 17 4 11 6 71 3 133
l-4 112 -67 -6 c-58 -5 -69 -2 -93 17 -28 21 -28 23 -28 139 0 126 4 137 55
165 44 24 164 18 202 -10z"/>
<path d="M1832 1438 c-8 -8 -12 -48 -12 -113 0 -107 7 -125 47 -125 38 0 54
38 52 126 -2 102 -10 124 -47 124 -15 0 -33 -5 -40 -12z m56 -110 c-3 -95 -4
-103 -23 -103 -18 0 -20 8 -23 89 -3 103 0 116 28 116 20 0 21 -5 18 -102z"/>
</g>
</svg>
